<svg xmlns="http://www.w3.org/2000/svg" width="500" height="500" fill="none" viewBox="0 0 500 500"><g clip-path="url(#a)"><path fill="#fff" d="M550-50H-50v600h600V-50Z"/><path fill="#06343D" d="M550-50H-50v600h600V-50Z"/><path fill="#B99B69" fill-rule="evenodd" d="M185.385 296.26c7.974-3.224 19.979-12.088 33.422-25.557a136.64 136.64 0 0 1 6.615-2.364c2.458-.198 4.646.875 6.823 2.395 2.156 1.5 4.119 3.25 6.291 4.745 2.813 1.938 5.985 3.511 10.026 3.646 7.521.25 14.178-3.583 20.292-7.104 4.005-2.307 7.771-4.474 11.188-5.099.323-.052.588-.198.807-.438.219-.244.338-.526.359-.849a1.344 1.344 0 0 0-.25-.885 1.364 1.364 0 0 0-.75-.536c-10.552-3.151-21.317-4.287-32.297-3.407a102.664 102.664 0 0 0-24.666 5.328 300.493 300.493 0 0 0 20.302-23.859 81.77 81.77 0 0 1 10.713-5.661c4.287-1.891 6.214-2.521 11.063-1.704 3.458.589 6.443 1.922 9.312 3.224 4.568 1.99 8.896 3.875 14.552 3.058 5.959-.86 9.506-3.495 13.334-6.339 3.458-2.568 7.166-5.323 13.229-6.906.307-.063.562-.214.766-.448.203-.24.317-.516.333-.828a1.38 1.38 0 0 0-.938-1.401c-3.317-1.125-6.291-2.943-9.239-4.74-5.755-3.51-11.391-6.953-19.563-5.739-9.604 1.432-13.583 4.682-20.666 10.474-5.198 4.25-7.422 6.192-13.526 8.901a89.731 89.731 0 0 0-5.141 2.479 352.034 352.034 0 0 0 7.755-11.026c3.943-5.854 7.177-10.016 12.36-15.005 5.031-4.844 9.77-8.375 14.156-11.646 8.193-6.104 15.182-11.313 20.672-22.229 7.604-15.131 5.901-32.099 4.093-50.115-.708-7.01-1.427-14.187-1.609-21.411a1.455 1.455 0 0 0-.12-.532 1.446 1.446 0 0 0-.307-.442 1.46 1.46 0 0 0-.458-.292 1.533 1.533 0 0 0-.532-.094c-1.057.026-1.281.834-1.421 1.646-1.402 7.958-1.672 11.38-6.219 18.224-3.058 4.604-6.891 9.182-10.709 13.734-6.046 7.214-12.052 14.381-15.099 21.771-3.182 7.714-4.255 15.417-5.463 24.099-.875 6.297-1.828 13.12-3.719 20.818-2.036 8.286-3.469 13.318-8.213 20.344a314.191 314.191 0 0 1-30.698 38.718 322.052 322.052 0 0 0 6.541-17.234c2.48-7.167 3.875-10.844 8.021-17.453 1.271-2.021 2.557-3.958 3.807-5.849 5.969-9.021 11.271-17.021 11.87-29.031.552-11.136-3.635-18.188-8.203-25.875-2.458-4.141-5.031-8.469-6.963-13.703a1.385 1.385 0 0 0-.61-.724 1.368 1.368 0 0 0-.937-.167 1.344 1.344 0 0 0-.823.474 1.373 1.373 0 0 0-.328.885c-.354 5.995-2.396 11.255-4.558 16.834-2.666 6.875-5.52 14.234-5.849 24.192-.26 7.896.99 13.433 2.271 19.073a90.328 90.328 0 0 1 2.047 11.427c.891 8.907.094 12.011-2.771 20.183-2.698 7.682-5.703 15.218-8.88 22.52-10.75 10.792-20.531 18.537-27.969 22.698 10.552-15.239 14.953-29.422 15.657-41.89 1.073-19.094-6.547-34.162-14.058-42.891a1.35 1.35 0 0 0-.786-.458 1.348 1.348 0 0 0-.901.135c-.287.146-.495.37-.625.662-.13.291-.162.593-.084.906 1.698 6.724.282 11.885-1.203 17.286-1.416 5.167-2.895 10.542-2.02 17.688.76 6.187 2.921 10.76 4.994 15.146 2.776 5.88 5.391 11.401 3.776 20.114a102.823 102.823 0 0 1-9.052 14.542 9.306 9.306 0 0 0-1.26 2c-.443 1.505.823 2.057 2.036 1.562Zm45.511-29.567a94.064 94.064 0 0 1 17.234-3.11 83.877 83.877 0 0 1 26.766 2.094 77.089 77.089 0 0 0-7.422 3.938c-5.787 3.333-12.089 6.958-18.828 6.734-3.422-.115-6.229-1.563-8.771-3.333-2.073-1.443-3.974-3.11-6.037-4.558a20.467 20.467 0 0 0-2.937-1.765h-.005Zm3.781-40a215.533 215.533 0 0 0 3.333-14.719c2.974-15.844 3.901-31.625 1.683-46.536.729 1.276 1.463 2.52 2.192 3.744 4.349 7.318 8.334 14.032 7.823 24.328-.557 11.24-5.661 18.943-11.411 27.631-1.188 1.797-2.406 3.635-3.62 5.552Zm1.578-64.875c3.011 15.745 2.219 32.651-.979 49.64-1.031 5.5-2.318 11.006-3.807 16.485-.355-5.386-1.323-9.677-2.287-13.917-1.234-5.469-2.453-10.838-2.203-18.385.313-9.474 3.078-16.605 5.667-23.271a91.063 91.063 0 0 0 3.609-10.552Zm73.438 65.312c-3.599 1.615-6.276 3.599-8.823 5.49-3.532 2.625-6.802 5.057-12.068 5.818-4.891.703-8.865-1.027-13.057-2.855-2.995-1.302-6.104-2.656-9.745-3.307a124.3 124.3 0 0 1 11.776-2.963c12.104-2.433 23.661-2.969 31.917-2.183Zm-44.021 2.344c.89-.719 1.729-1.406 2.526-2.057 6.703-5.479 10.469-8.558 19.318-9.87 7.182-1.073 12.395 2.109 17.713 5.354.693.422 1.386.849 2.089 1.26-8.25-.473-18.959.198-30.089 2.433a126.39 126.39 0 0 0-11.557 2.88Zm37.39-113.109c.292 3.546.646 7.062.99 10.531 1.771 17.599 3.438 34.177-3.812 48.594-5.193 10.328-11.938 15.354-19.839 21.25a144.927 144.927 0 0 0-13.729 11.198c15.515-26.386 29.005-57.448 36.39-91.573Zm-40.354 92.807c2.719-9.641 3.87-17.927 4.917-25.464 1.187-8.5 2.234-16.041 5.281-23.422 2.88-6.979 8.75-13.984 14.667-21.041 3.64-4.349 7.297-8.714 10.333-13.156-7.932 30.895-20.75 59.02-35.198 83.083Zm-60.916 40.245a68.663 68.663 0 0 1-4.912 21.604c-.385-5.474-2.391-9.724-4.489-14.167-1.974-4.177-4.037-8.536-4.745-14.291-.808-6.625.593-11.724 1.937-16.625 1.172-4.261 2.302-8.391 2.052-13.256a58.404 58.404 0 0 1 4.797 8.422 58.97 58.97 0 0 1 3.344 9.099 58.637 58.637 0 0 1 1.802 9.526c.339 3.224.411 6.453.214 9.688Z" clip-rule="evenodd"/><path fill="#B99B69" d="M113.674 317.331c0 7.698 4.911 12.511 10.89 12.511 2.787 0 5.573-1.318 7.5-4.354l-1.823-2.537c-.406 1.823-2.182 5.12-5.271 5.12-4.557 0-6.432-5.828-6.432-10.74 0-6.385 3.193-9.63 6.584-9.729 3.802-.099 7.906 3.901 7.906 12.005v3.652c0 2.427.047 4.406.911 6.583h4.86c-.709-1.927-.912-3.646-.912-6.182v-25.631c0-2.536.203-4.255.912-6.182h-6.683c.756 1.927.912 3.646.912 6.182v12.813c-1.776-3.698-5.271-5.823-8.917-5.823-6.588 0-10.437 6.229-10.437 12.312Zm39.917 8.407c-1.974-1.266-.25-3.089 2.989-3.901 1.672-.453 3.599-.709 5.271-1.266 5.417-1.823 6.13-7.698 2.682-11.651-2.125-2.432-5.52-3.901-9.067-3.901-6.839 0-12.412 5.573-12.412 12.411 0 6.839 5.573 12.412 12.412 12.412 4.864 0 9.119-2.787 11.145-6.891l-.963-1.317c-1.922 4.458-7.75 6.838-12.057 4.104Zm-2.735-2.026c-.708-.709-1.317-1.521-1.875-2.485-2.989-5.062-2.531-10.89 1.063-12.968 1.317-.756 2.786-.912 4.208-.709 3.141.557 6.38 3.042 7.292 6.13.609 2.079.052 4.204-2.328 5.219-2.839 1.167-6.839 1.724-8.36 4.813Zm20.161-12.058c.099 5.776 10.994 7.5 16.463 10.438 3.193 1.724 4.865 4.609 0 5.724-1.469.354-3.14.302-4.255.099-3.193-.558-6.229-2.38-8.714-4.406l-3.494 4.864c3.343.761 8.411 1.469 12.916 1.469 6.131 0 9.782-2.99 9.729-6.636-.104-6.234-12.718-7.75-17.682-11.145-2.786-1.927-2.432-4.204 1.167-5.016 1.469-.354 3.14-.302 4.307-.099 3.188.557 6.229 2.38 8.714 4.406l3.494-4.864c-3.343-.761-8.463-1.469-12.916-1.469-6.13 0-9.781 2.99-9.729 6.635Zm49.644 12.006v-11.803c0-6.13-4.708-6.838-9.677-6.838-4.505 0-9.573.708-12.917 1.469l3.495 4.864c2.891-2.38 6.635-4.51 10.49-4.562 5.416-.099 4.708 6.64-.308 7.906-1.875.453-3.901.047-5.875 0-4.609-.104-7.802 2.833-7.802 7.547 0 4.963 3.547 7.599 7.547 7.599 4.208 0 8.818-2.938 10.182-8.917v2.229c0 2.485.052 4.511.912 6.688h4.864c-.708-1.927-.911-3.646-.911-6.182Zm-13.172 3.494c-5.62.157-6.734-9.218.813-10.281 2.635-.354 6.177-.458 7.494-3.042-.453 4.563-2.328 13.172-8.307 13.323Zm35.814-15.5c.099 5.776 10.995 7.5 16.464 10.438 3.192 1.724 4.864 4.609 0 5.724-1.469.354-3.141.302-4.256.099-3.192-.558-6.229-2.38-8.713-4.406l-3.495 4.864c3.344.761 8.411 1.469 12.917 1.469 6.13 0 9.781-2.99 9.729-6.636-.104-6.234-12.719-7.75-17.682-11.145-2.787-1.927-2.433-4.204 1.166-5.016 1.469-.354 3.141-.302 4.308-.099 3.187.557 6.229 2.38 8.713 4.406l3.495-4.864c-3.344-.761-8.464-1.469-12.917-1.469-6.13 0-9.781 2.99-9.729 6.635Zm39.462-6.635c-6.839 0-12.411 5.573-12.411 12.411 0 6.839 5.572 12.412 12.411 12.412 6.839 0 12.411-5.573 12.411-12.412 0-6.838-5.572-12.411-12.411-12.411Zm5.422 21.578c-3.599 2.13-8.917-.25-11.906-5.37-2.99-5.062-2.532-10.89 1.062-12.968 3.599-2.125 8.917.255 11.906 5.322 2.99 5.115 2.532 10.943-1.062 13.016Zm11.193-21.578c.708 1.875.911 3.599.911 6.182v12.459c0 2.536-.203 4.255-.911 6.182h6.687c-.76-1.927-.911-3.646-.911-6.182v-12.511c1.619-.911 4-2.13 6.13-2.838 3.75-1.214 6.734-.808 6.734 4.052v11.297c0 2.536-.198 4.255-.911 6.182h6.687c-.708-1.927-.911-3.646-.911-6.182v-12.308c0-4.208-2.281-6.333-6.432-6.333-4.006 0-8.157 2.281-11.349 4.255-.052-1.469-.302-2.838-.86-4.255h-4.864Z"/><path fill="#B99B69" d="M351.254 330.399c-3.849.557-7.703 2.38-11.093 3.292-7.953 2.078-8.969-1.922-7.349-6.485 2.13 1.62 4.765 2.636 7.651 2.636 6.89 0 12.411-5.573 12.411-12.412 0-5.166-3.14-9.625-7.599-11.5 2.787-.656 5.422-2.177 5.422-5.369h-4.917c0 4.458-3.291 4.458-5.317 4.458-6.839 0-12.412 5.521-12.412 12.411 0 2.886 1.016 5.625 2.735 7.698-4.506 7.401-1.063 14.287 8.411 10.896 4.458-1.625 10.031-4.562 14.386-3.599 5.572 1.219 5.723 8.209.963 10.537-8.661 4.359-18.896-5.167-27.354-4.813-4.156.203-7.906 2.13-9.625 6.13l3.745 3.344c2.484-5.625 6.942-6.786 11.854-5.927 5.776 1.063 11.604 4.052 17.583 4.156 5.016.099 12.255-2.536 12.209-8.51-.105-4.104-4.209-8.005-11.704-6.943Zm-8.864-21.583c1.719 1.068 3.344 2.687 4.609 4.765 2.99 5.063 2.479 10.891-1.114 13.016-3.193 1.875-7.802.156-10.844-3.797.458-.76.963-1.469 1.469-2.177 2.942-3.698 5.776-7.245 6.031-10.031.052-.662 0-1.266-.151-1.776Zm-7.297-.604c1.115-.662 2.484-.865 3.849-.662 1.776.459 1.927 2.485 1.469 3.901-.761 2.229-3.037 5.12-5.417 8.104-.359.459-.76.917-1.167 1.422-2.786-5.015-2.281-10.692 1.266-12.765Z"/><path fill="#B99B69" d="M369.691 305.019c-6.838 0-12.411 5.573-12.411 12.411 0 6.839 5.573 12.412 12.411 12.412 6.839 0 12.412-5.573 12.412-12.412 0-6.838-5.573-12.411-12.412-12.411Zm5.422 21.578c-3.599 2.13-8.917-.25-11.906-5.37-2.99-5.062-2.531-10.89 1.062-12.968 3.599-2.125 8.917.255 11.907 5.322 2.989 5.115 2.531 10.943-1.063 13.016ZM198.84 377.969h1.172v-8.213h3.146v-1.12h-7.479v1.12h3.161v8.213Zm10.782 0h1.12v-3.531c0-1.521.922-2.495 2.224-2.495 1.203 0 1.948.855 1.948 2.24v3.786h1.12v-3.89c0-1.974-1.094-3.203-2.917-3.203-.896 0-1.776.333-2.375 1.083v-3.854h-1.12v9.864Zm16.517.172c1.557 0 2.838-.838 3.401-2.182h-1.271c-.427.729-1.213 1.13-2.12 1.13-1.317 0-2.25-.828-2.422-2.13h5.985c.078-2.417-1.349-4.083-3.563-4.083-2.088 0-3.557 1.494-3.557 3.63 0 2.146 1.453 3.635 3.547 3.635Zm-2.401-4.172c.203-1.224 1.135-2.036 2.411-2.036 1.271 0 2.203.771 2.443 2.036h-4.854Zm24.984 4.172c2.865 0 4.797-2.172 4.745-5.239h-5.068v1.119h3.803c-.245 1.761-1.573 2.948-3.454 2.948-2.093 0-3.572-1.505-3.572-3.666 0-2.157 1.463-3.667 3.557-3.667 1.443 0 2.588.708 3.172 1.906h1.281c-.599-1.838-2.359-3.078-4.495-3.078-2.729 0-4.719 2.042-4.719 4.839 0 2.812 2 4.838 4.75 4.838Zm11.475-.172h1.12v-3.213c0-1.974.984-2.667 2.239-2.667h.682v-1.036h-.63c-1.172 0-1.864.369-2.359 1.198l-.13-1.198h-.922v6.916Zm13.571.172c1.557 0 2.839-.838 3.401-2.182h-1.271c-.427.729-1.213 1.13-2.12 1.13-1.317 0-2.25-.828-2.421-2.13h5.984c.078-2.417-1.349-4.083-3.563-4.083-2.088 0-3.557 1.494-3.557 3.63 0 2.146 1.453 3.635 3.547 3.635Zm-2.401-4.172c.203-1.224 1.135-2.036 2.411-2.036 1.271 0 2.204.771 2.443 2.036h-4.854Zm15.638 4.172c1.557 0 2.838-.838 3.401-2.182h-1.271c-.427.729-1.214 1.13-2.12 1.13-1.318 0-2.25-.828-2.422-2.13h5.985c.078-2.417-1.349-4.083-3.563-4.083-2.088 0-3.557 1.494-3.557 3.63 0 2.146 1.453 3.635 3.547 3.635Zm-2.401-4.172c.203-1.224 1.135-2.036 2.411-2.036 1.271 0 2.203.771 2.443 2.036h-4.854Zm12.637 4h1.12v-3.494c0-1.516.922-2.532 2.214-2.532 1.213 0 1.958.881 1.958 2.282v3.744h1.12v-3.854c0-1.969-1.094-3.239-2.932-3.239-.933 0-1.839.364-2.438 1.187l-.12-1.01h-.922v6.916Zm-80.317 18h1.088l3.709-9.333h-1.24l-1.562 3.932-1.448 3.709-1.469-3.709-1.547-3.932h-1.25l3.719 9.333Zm11.021 0h1.12v-6.916h-1.12v6.916Zm-.349-8.932c0 .495.365.87.912.87.542 0 .891-.375.891-.87 0-.505-.349-.88-.891-.88-.547 0-.912.375-.912.88Zm8.708 8.932h1.12v-9.864h-1.12v9.864Zm8.359 0h1.119v-9.864h-1.119v9.864Zm10.624.105c1.12 0 2-.36 2.625-1.063l.12.958h.922v-4.401c0-1.599-1.214-2.692-3.026-2.692-1.506 0-2.641.817-2.948 2.145h1.135c.224-.677.932-1.104 1.828-1.104 1.172 0 1.891.651 1.891 1.735v.25h-2.828c-1.438 0-2.386.817-2.386 2.067 0 1.308 1 2.105 2.667 2.105Zm-1.547-2.115c0-.656.537-1.068 1.307-1.068h2.803c-.042 1.276-1.084 2.188-2.521 2.188-.974 0-1.589-.443-1.589-1.12Zm15.399 4.849c2.062 0 3.411-1.281 3.411-3.24v-6.515h-.922l-.12.932c-.609-.693-1.515-1.109-2.557-1.109-1.974 0-3.453 1.494-3.453 3.51 0 2.026 1.479 3.516 3.453 3.516 1 0 1.865-.386 2.479-1.026v.656c0 1.422-.838 2.239-2.291 2.239-1.136 0-1.922-.52-2.136-1.364h-1.13c.25 1.484 1.505 2.401 3.266 2.401Zm-2.521-6.422c0-1.417 1.026-2.427 2.453-2.427 1.437 0 2.453 1.01 2.453 2.427 0 1.422-1.016 2.422-2.453 2.422-1.427 0-2.453-1-2.453-2.422Zm16.17 3.755c1.557 0 2.839-.838 3.401-2.182h-1.271c-.427.729-1.213 1.13-2.119 1.13-1.318 0-2.25-.828-2.422-2.13h5.984c.078-2.417-1.349-4.083-3.562-4.083-2.089 0-3.558 1.494-3.558 3.63 0 2.146 1.453 3.635 3.547 3.635Zm-2.401-4.172c.203-1.224 1.135-2.036 2.412-2.036 1.27 0 2.203.771 2.442 2.036h-4.854Z"/></g><defs><clipPath id="a"><path fill="#fff" d="M0 0h500v500H0z"/></clipPath></defs></svg>